<svg xmlns="http://www.w3.org/2000/svg" xmlns:xlink="http://www.w3.org/1999/xlink" width="349" height="523" viewBox="0 0 349 523">
  <defs>
    <clipPath id="clip-path">
      <rect id="Rectangle_325" data-name="Rectangle 325" width="349" height="520" transform="translate(-145.162 -449.302)" fill="#fff" stroke="#707070" stroke-width="1"/>
    </clipPath>
    <linearGradient id="linear-gradient" x1="0.5" y1="0.18" x2="0.468" y2="1.557" gradientUnits="objectBoundingBox">
      <stop offset="0" stop-color="#fafbff"/>
      <stop offset="1" stop-color="#fafbff" stop-opacity="0"/>
    </linearGradient>
  </defs>
  <g id="Group_1811" data-name="Group 1811" transform="translate(13528 22066)">
    <g id="Mask_Group_14" data-name="Mask Group 14" transform="translate(-13382.838 -21615.699)" opacity="0.294" clip-path="url(#clip-path)">
      <g id="Group_1803" data-name="Group 1803" transform="translate(-232.822 -822.949)">
        <path id="Path_658" data-name="Path 658" d="M130.3,130.3v.583c.258-.146.43-.437.689-.583Z" transform="translate(-130.128 -130.154)" fill="#273583"/>
        <path id="Path_659" data-name="Path 659" d="M184.45,130.3c-18.079,15.73-36.072,31.314-54.15,46.753v.874c18.423-15.73,36.76-31.46,55.184-47.627Z" transform="translate(-130.128 -130.154)" fill="#273583"/>
        <path id="Path_660" data-name="Path 660" d="M230.164,130.3c-33.317,31.9-66.375,62.92-99.864,92.487v1.02c33.833-29.858,67.236-61.172,100.983-93.506Z" transform="translate(-130.128 -130.154)" fill="#273583"/>
        <path id="Path_661" data-name="Path 661" d="M267.785,130.3c-47.263,49.812-91.513,95.545-137.485,137.347v1.165c46.4-42.092,91-88.117,138.691-138.512h-1.205Z" transform="translate(-130.128 -130.154)" fill="#273583"/>
        <path id="Path_662" data-name="Path 662" d="M300.313,130.3h-1.291c-2.5,2.913-5.079,5.826-7.576,8.593-56.389,64.522-106.665,122.2-161.246,172.3v1.311c54.753-50.249,105.2-108.071,161.849-172.885C294.8,136.563,297.559,133.359,300.313,130.3Z" transform="translate(-130.114 -130.154)" fill="#273583"/>
        <path id="Path_663" data-name="Path 663" d="M287.672,178.364c12.483-15.439,25.483-31.46,39.171-48.064h-1.377c-13.344,16.313-26.171,32.043-38.482,47.336C232.833,244.488,184.709,303.913,130.3,353.725v1.456c16.1-14.711,31.681-30.149,47.005-46.608C213.979,269.394,249.362,225.7,287.672,178.364Z" transform="translate(-130.128 -130.154)" fill="#273583"/>
        <path id="Path_664" data-name="Path 664" d="M196.5,328.236c29.184-34.082,58.2-72.533,88.845-113.315,19.973-26.508,41.237-54.764,64.567-84.622h-1.55c-23.072,29.421-44.078,57.386-63.879,83.748-30.648,40.782-59.574,79.233-88.759,113.315-22.556,26.362-43.906,48.21-65.428,67.29v1.6c13.774-12.089,27.463-25.488,41.409-40.345C179.8,347.171,188.066,337.995,196.5,328.236Z" transform="translate(-130.128 -130.154)" fill="#273583"/>
        <path id="Path_665" data-name="Path 665" d="M284.659,249.149c25.569-36.7,53.29-76.32,85.745-118.849h-1.636c-32.111,42.238-59.574,81.563-85.057,117.975C230.595,324.3,187.722,385.767,130.3,433.831v1.748a470.824,470.824,0,0,0,42.614-40.345C211.224,354.162,245.144,305.661,284.659,249.149Z" transform="translate(-130.128 -130.154)" fill="#273583"/>
        <path id="Path_666" data-name="Path 666" d="M285.52,281.238C315.049,235.8,347.677,185.4,389.172,130.2h-1.808c-41.151,54.764-73.607,104.721-102.877,150.018C232.747,360.033,191.51,423.536,130.3,470.581v1.893a373.792,373.792,0,0,0,47.091-42.821C215.7,388.872,247.813,339.351,285.52,281.238Z" transform="translate(-130.128 -130.2)" fill="#273583"/>
        <path id="Path_667" data-name="Path 667" d="M184.006,460.822c37.966-40.49,68.1-90.448,103.652-149.581C319.942,257.642,356.1,197.49,406.634,130.2h-1.98c-50.1,66.853-86.09,126.714-118.2,180.022-48.9,81.272-87.553,145.5-150.657,190.945-1.808,1.311-3.7,2.622-5.6,3.933v2.039c2.152-1.456,4.218-2.913,6.371-4.515A307.565,307.565,0,0,0,184.006,460.822Z" transform="translate(-130.114 -130.2)" fill="#273583"/>
        <path id="Path_668" data-name="Path 668" d="M192.2,489.224c37.535-40.053,65.6-90.3,98.831-149.872C325.035,278.325,363.6,209.287,423.177,130.2h-2.066c-59.144,78.65-97.454,147.4-131.373,208.132-44.767,80.252-80.15,143.609-141.962,187.6-5.6,3.932-11.45,7.865-17.476,11.506v2.039c6.285-3.787,12.4-7.719,18.251-11.943A288.885,288.885,0,0,0,192.2,489.224Z" transform="translate(-130.128 -130.2)" fill="#273583"/>
        <path id="Path_669" data-name="Path 669" d="M295.42,365.422c32.628-63.211,69.647-134.725,130.512-217.6,4.3-5.826,8.7-11.8,13.172-17.623h-2.238c-4.132,5.389-8.179,10.778-12.139,16.313-60.952,83.02-97.97,154.679-130.684,217.89-47.522,91.9-82.732,160.213-163.743,202.451v2.33a259.091,259.091,0,0,0,71.11-53.744C238.343,476.115,264.256,425.866,295.42,365.422Z" transform="translate(-130.128 -130.2)" fill="#273583"/>
        <path id="Path_670" data-name="Path 670" d="M211.124,539.572c36.76-39.18,60.865-89.72,89.62-149.872,34.264-71.8,75.673-158.611,153.756-259.4h-2.41c-77.481,100.206-118.718,186.721-152.9,258.38-19.2,40.2-35.727,74.863-55.27,105.158-21.35,33.353-44.164,57.677-71.8,76.757A260.714,260.714,0,0,1,130.2,594.045v2.331a261.129,261.129,0,0,0,42.873-23.886A237.175,237.175,0,0,0,211.124,539.572Z" transform="translate(-130.114 -130.154)" fill="#273583"/>
        <path id="Path_671" data-name="Path 671" d="M221.541,562c36.5-38.888,58.8-89.574,85.4-150.018,33.919-77.194,75.415-171.428,162.624-281.684h-2.583C380.377,239.973,339.14,333.917,305.221,410.965c-17.476,39.762-32.628,74.135-51.051,104.284-20.145,32.917-42.184,56.949-69.561,75.737-15.927,10.924-33.919,20.245-54.409,28.256v2.33c20.834-8.011,39.257-17.478,55.356-28.547A214.873,214.873,0,0,0,221.541,562Z" transform="translate(-130.114 -130.154)" fill="#273583"/>
        <path id="Path_672" data-name="Path 672" d="M232.4,582.976c12.483-13.254,23.675-28.693,34.178-46.607,17.476-30,31.251-64.231,47.263-103.847,25.913-64.085,58.111-143.9,119.751-234.057q23.5-34.519,50.879-68.164h-2.755q-26.6,32.989-49.674,66.707c-61.812,90.3-94.1,170.263-120.009,234.494-15.927,39.471-29.787,73.7-47.091,103.556-19.026,32.625-40.462,56.512-67.58,75.155-18.94,12.963-41.065,23.741-67.064,32.334v2.476c26.43-8.739,48.9-19.663,68.1-32.771A212.426,212.426,0,0,0,232.4,582.976Z" transform="translate(-130.128 -130.154)" fill="#273583"/>
        <path id="Path_673" data-name="Path 673" d="M243.422,602.538c12.741-13.545,24.019-29.275,34.264-47.918,16.529-29.858,29.1-63.94,43.734-103.265,24.105-65.25,54.15-146.377,115.791-238.427A969.833,969.833,0,0,1,499.195,130.2h-3.013a990.618,990.618,0,0,0-60.607,81.126c-61.9,92.341-91.944,173.759-116.135,239.009-14.549,39.325-27.118,73.261-43.561,102.828-17.993,32.48-38.913,56.22-65.773,74.863-21.695,15-48.038,26.945-79.805,36.266v2.622c32.2-9.322,58.885-21.556,80.924-36.7A190.223,190.223,0,0,0,243.422,602.538Z" transform="translate(-130.128 -130.2)" fill="#273583"/>
        <path id="Path_674" data-name="Path 674" d="M254.528,620.944C291.2,581.765,308.592,530.5,329.512,468.6c22.383-66.27,50.19-148.707,111.745-242.213A930.528,930.528,0,0,1,513.744,130.4h-3.185a937.336,937.336,0,0,0-71.024,94.38c-61.726,93.943-89.62,176.526-112,242.942-13.172,39.179-24.622,72.824-40.2,102.537-17.046,32.334-37.449,56.22-64.309,74.863-24.363,16.9-54.839,30.149-92.719,40.053v2.767c38.31-9.9,69.13-23.3,93.752-40.345A216.788,216.788,0,0,0,254.528,620.944Z" transform="translate(-130.128 -130.109)" fill="#273583"/>
        <path id="Path_675" data-name="Path 675" d="M265.905,638.176c37.1-39.471,53.031-91.467,72.229-153.95,10.331-33.79,22.125-71.95,38.74-113.023a781.887,781.887,0,0,1,68.872-132.686A894.241,894.241,0,0,1,528.221,130.3h-3.358a900.218,900.218,0,0,0-80.924,106.615c-61.64,95.109-87.295,179-107.957,246.292-11.966,39.034-22.3,72.679-37.1,102.391-16.185,32.48-36.244,56.366-62.932,75.155-26.86,18.934-61.468,33.354-105.546,43.84v2.767c44.594-10.487,79.633-25.052,106.751-44.277A188.176,188.176,0,0,0,265.905,638.176Z" transform="translate(-130.142 -130.154)" fill="#273583"/>
        <path id="Path_676" data-name="Path 676" d="M277.227,654.343c37.707-40.2,52.257-92.632,69.9-155.99,9.47-34.227,20.231-72.97,36.072-114.334a737.207,737.207,0,0,1,67.408-134.288c26-40.782,56.3-80.107,92.03-119.432h-3.616a873.133,873.133,0,0,0-90.394,117.684A742.547,742.547,0,0,0,380.88,382.709c-15.927,41.656-26.688,80.4-36.158,114.625-21.178,76.32-37.966,136.618-96.076,178.274-29.184,20.973-68.011,36.558-118.546,47.773v2.913c51.051-11.215,90.308-27.091,119.837-48.21A173.61,173.61,0,0,0,277.227,654.343Z" transform="translate(-130.1 -130.154)" fill="#273583"/>
        <path id="Path_677" data-name="Path 677" d="M263.137,692.066a177.517,177.517,0,0,0,25.569-22.576c38.482-40.927,51.74-94.089,67.925-158.611,8.7-34.519,18.509-73.844,33.575-115.645A690.343,690.343,0,0,1,456.15,259.782C483.957,215.5,517.274,172.829,557.305,130.3h-3.788c-39.257,41.947-71.885,84.039-99.348,127.588a693.728,693.728,0,0,0-66.289,136.181c-15.152,42.092-24.966,81.418-33.661,116.082-19.112,76.466-34.264,136.91-92.374,179.439C230.853,712.311,188.066,729.5,130.3,741.733v3.058l6.2-1.311C191.079,731.391,232.489,714.642,263.137,692.066Z" transform="translate(-130.128 -130.154)" fill="#273583"/>
        <path id="Path_678" data-name="Path 678" d="M300.069,683.91c39.429-42.092,51.568-95.982,66.289-161.815,7.834-34.956,16.7-74.572,31.078-116.81a652.7,652.7,0,0,1,64.481-136.473c29.529-47.481,65.6-92.924,109.937-138.512h-4.046c-43.389,45.005-78.858,89.865-107.957,136.618a651.9,651.9,0,0,0-64.826,137.2c-14.377,42.384-23.33,82.146-31.164,117.247-17.218,76.757-30.82,137.492-89.017,181.187C241.7,727.459,194.867,746.247,130.3,759.5v3.2c65.17-13.4,112.433-32.188,146.008-57.531A177.342,177.342,0,0,0,300.069,683.91Z" transform="translate(-130.128 -130.154)" fill="#273583"/>
        <path id="Path_679" data-name="Path 679" d="M311.261,697.747c16.013-17.041,28.41-36.995,38.138-61.172,12.4-30.878,19.2-64.959,27.118-104.43C396.662,431.5,421.972,304.933,563.073,154.478c7.49-8.011,15.324-16.021,23.5-24.178h-4.3C421.886,290.8,394.94,425.384,373.762,531.27c-15.41,77.194-27.635,138.22-85.918,183.517-35.211,27.236-86.09,47.627-157.544,62.338v3.35c72.057-14.71,123.453-35.247,159.094-62.92A191.861,191.861,0,0,0,311.261,697.747Z" transform="translate(-130.128 -130.154)" fill="#273583"/>
        <path id="Path_680" data-name="Path 680" d="M302.507,729.061a206.942,206.942,0,0,0,19.973-18.352c16.874-18.06,29.7-39.034,39.343-64.668,11.88-31.46,18.251-67.29,24.966-105.3,6.285-35.684,13.516-76.174,26.43-118.995A583.589,583.589,0,0,1,474.859,284.1c32.37-52.87,73.779-103.265,126.552-153.8h-4.563c-51.654,49.957-92.288,99.624-124.228,151.766a583.87,583.87,0,0,0-61.985,138.512c-13,42.966-20.145,83.6-26.516,119.432-6.715,37.723-13,73.407-24.794,104.576-13,34.227-31.509,60.153-58.283,81.563-30.734,24.615-73.262,43.84-130.082,58.7-12.741,3.35-26.257,6.554-40.462,9.467v3.5q21.695-4.37,41.065-9.613C228.556,773.193,271.429,753.967,302.507,729.061Z" transform="translate(-130.156 -130.154)" fill="#273583"/>
        <path id="Path_681" data-name="Path 681" d="M315.565,739.839a207.558,207.558,0,0,0,17.907-16.75c17.907-19.08,31.078-41.364,40.807-68.455,11.45-31.9,17.046-68.018,22.986-106.323,5.6-36.121,11.966-76.9,24.191-120.014a553.289,553.289,0,0,1,60.263-137.929c32.628-53.6,74.984-104.576,129.651-155.7,1.55-1.457,3.185-2.913,4.821-4.37h-4.907c-15.41,14.419-29.873,28.838-43.561,43.258-35.3,37.577-64.654,75.737-88.414,114.771a560.58,560.58,0,0,0-60.693,138.949c-12.225,43.112-18.6,84.185-24.277,120.306-5.94,38.014-11.536,73.989-22.814,105.6-12.483,34.81-30.82,61.464-57.68,83.748-30.906,25.634-73.865,45.879-131.545,62.046q-24.148,6.773-52,12.671v3.641c18.854-3.932,36.33-8.156,52.687-12.817C241.011,786.155,284.315,765.619,315.565,739.839Z" transform="translate(-130.128 -130.154)" fill="#273583"/>
        <path id="Path_682" data-name="Path 682" d="M328.537,749.889a184.355,184.355,0,0,0,15.668-15c19.026-20.245,32.8-43.84,42.528-72.679,11.019-32.625,15.927-69.037,21.178-107.489,10.245-75.592,21.867-161.087,81.1-258.817,34.35-56.657,81.441-111.567,142.048-165.6h-5.165q-29.572,26.654-54.839,53.453-50.75,54.181-84.626,109.965a529.3,529.3,0,0,0-59.4,139.094c-11.708,43.4-17.046,83.02-22.211,121.325C387.336,682.89,374.767,775.523,130.1,828.83v3.787c23.158-5.1,44.595-10.487,64.223-16.313C253.295,798.535,297.2,776.834,328.537,749.889Z" transform="translate(-130.1 -130.154)" fill="#273583"/>
        <path id="Path_683" data-name="Path 683" d="M341.55,759.21c4.735-4.224,9.039-8.448,13.172-12.817,48.3-51.414,55.614-114.334,64.051-186.43,8.867-76.029,19.026-162.107,77.911-259.4q32.155-53.089,80.236-104.284A895.11,895.11,0,0,1,646.308,130.3H640.8c-63.1,54.618-111.745,110.4-146.611,168.078-59.4,98.021-69.56,184.682-78.514,261.148-4.563,38.742-8.781,75.3-19.284,108.071-11.622,36.266-29.615,64.522-56.733,88.554-31.251,27.819-75.242,50.686-134.558,69.62-22.642,7.282-47.522,13.982-74.9,20.1V849.8c27.635-6.263,52.773-12.963,75.673-20.391C265.619,810.333,309.955,787.466,341.55,759.21Z" transform="translate(-130.114 -130.154)" fill="#273583"/>
        <path id="Path_684" data-name="Path 684" d="M354.564,768.095c3.788-3.5,7.318-6.991,10.675-10.632,50.621-54.036,57.164-118.7,64.567-192.984,7.662-76.466,16.357-163.126,74.984-259.837C541.12,244.78,593.119,186.957,661.9,130.3H656.05C588.9,186.083,537.935,243.178,502.122,302.311c-59.144,97.584-67.839,184.828-75.587,261.73-3.96,39.034-7.576,76.029-17.734,109.528-11.192,37.14-29.1,66.27-56.3,91.467-31.509,29.13-75.931,53.307-136.022,73.7-25.827,8.739-54.409,16.9-86.176,24.469v4.078c32.111-7.574,61.038-15.876,87.123-24.76C277.858,821.839,322.711,797.516,354.564,768.095Z" transform="translate(-130.128 -130.154)" fill="#273583"/>
        <path id="Path_685" data-name="Path 685" d="M367.391,776.3c2.755-2.622,5.424-5.389,8.006-8.156,53.376-56.8,58.971-123.51,65.428-200.267,6.543-76.9,13.86-164,72.229-259.983,37.191-61.172,91.686-120.16,164.518-177.691h-6.2C600.35,187,547.061,245.117,510.3,305.415c-58.885,96.856-66.289,184.537-72.832,262.022-6.715,79.378-12.569,148.125-72.229,205.51-31.681,30.586-76.62,56.075-137.485,78.213A977.369,977.369,0,0,1,130.3,880.435v4.224a986.366,986.366,0,0,0,98.487-29.421C290,832.954,335.366,807.174,367.391,776.3Z" transform="translate(-130.128 -130.2)" fill="#273583"/>
        <path id="Path_686" data-name="Path 686" d="M380.2,783.779c1.722-1.748,3.444-3.5,5.079-5.243,25.052-26.654,41.581-56.8,51.654-94.235,9.556-35.538,12.225-73.553,15.066-113.752,5.424-77.194,11.622-164.729,69.733-259.837,38.052-62.338,94.957-122.2,171.835-180.313h-6.543c-74.9,57.386-130.6,116.373-168.133,177.837-58.713,96.128-64.912,184.245-70.421,262.022-5.682,80.689-10.589,150.309-70.594,210.462-31.939,32.043-77.395,59.133-138.949,83.02-31.853,12.38-67.925,23.741-108.731,34.373v4.37c41.237-10.778,77.653-22.284,109.764-34.664C302.035,843.5,347.921,816.113,380.2,783.779Z" transform="translate(-130.114 -130.109)" fill="#273583"/>
        <path id="Path_687" data-name="Path 687" d="M392.888,790.962c.6-.728,1.291-1.311,1.894-2.039,27.032-28.693,44.336-60.881,54.581-100.934,9.3-36.412,11.536-74.863,13.86-115.645,2.324-39.762,4.649-80.835,13.688-124.092A416.1,416.1,0,0,1,530.631,312.8C569.544,249.44,628.86,189,709.87,130.3H702.9C624.039,188.122,566.1,247.838,527.7,310.176c-26.171,42.529-43.906,87.389-54.323,137.055-9.125,43.695-11.536,84.913-13.774,124.821-2.324,40.49-4.563,78.65-13.688,114.625-10.245,40.2-27.807,72.242-55.356,100.934-49.416,51.56-133.525,93.069-260.163,127.879v4.515c45.8-12.526,85.918-25.925,121.042-40.49C314.029,853.882,360.346,824.9,392.888,790.962Z" transform="translate(-130.142 -130.154)" fill="#273583"/>
        <path id="Path_688" data-name="Path 688" d="M405.443,797.662c28.237-30.586,46.144-64.377,56.3-106.469,9.039-37.286,10.847-76.32,12.741-117.538,1.808-39.908,3.788-81.272,12.4-124.53C496.7,400.187,514,356.2,539.829,314.545c31.423-50.686,75.156-98.167,133.784-145.066q24.535-19.663,52.859-39.179h-7.49c-16.787,11.8-32.628,23.6-47.522,35.538C612.4,213.028,568.325,260.8,536.73,311.924A404.751,404.751,0,0,0,483.182,448.1c-8.781,43.549-10.675,85.2-12.483,125.258-1.894,40.927-3.7,79.67-12.569,116.519-9.986,41.219-27.549,74.426-55.184,104.43-.517.583-.947,1.02-1.464,1.6-51.31,54.618-138.949,99.478-271.183,137.638v4.661c133.353-38.451,221.767-83.6,273.679-138.949A15.969,15.969,0,0,1,405.443,797.662Z" transform="translate(-130.128 -130.154)" fill="#273583"/>
        <path id="Path_689" data-name="Path 689" d="M412.761,809.459l5.165-5.68c28.324-31.9,46.23-67,56.131-110.11,8.781-38.306,10.245-77.776,11.708-119.577,1.464-40.2,2.927-81.854,11.278-124.966,9.384-48.647,26.516-92.341,52.257-133.414,31.25-49.957,75.156-96.565,134.214-142.59,18.423-14.274,38.482-28.693,60-42.821H735.6q-28.926,19.444-54.15,39.034C621.959,215.65,577.795,262.549,546.2,312.943,520.115,354.6,502.81,398.876,493.254,448.1c-8.437,43.549-9.9,85.35-11.364,125.84-1.464,41.51-2.927,80.835-11.622,118.558-9.728,42.384-27.2,76.757-55.011,108.071-32.628,36.7-79.461,68.892-143.167,98.313-40.462,18.643-87.467,36.121-141.79,52.725v4.806c54.925-16.6,102.275-34.227,143.167-53.162C334.419,875,380.046,844.269,412.761,809.459Z" transform="translate(-130.128 -130.154)" fill="#273583"/>
        <path id="Path_690" data-name="Path 690" d="M421.2,819.8q4.649-5.025,9.039-10.05c62.5-73.115,64.567-152.057,66.892-235.659,1.119-40.49,2.238-82.291,10.245-125.258,9.04-48.5,26-91.759,51.654-132.249,31.165-49.229,75.243-94.963,134.644-139.968,20.489-15.439,43.045-31.023,67.322-46.316h-8.523c-21.867,13.982-42.27,28.11-61.038,42.238-59.832,45.3-104.255,91.467-135.677,141.133-26,41.073-43.131,84.913-52.343,134.142-8.092,43.4-9.3,85.5-10.331,126.132-1.119,42.092-2.238,81.854-10.675,120.6-9.556,43.549-27.032,79.087-55.011,111.713-32.886,38.451-80.15,72.533-144.545,103.847C239.634,931.221,189.1,951.029,130.3,969.818v4.952c59.488-18.934,110.453-38.888,154.1-60.3C343.63,885.633,388.569,854.61,421.2,819.8Z" transform="translate(-130.128 -130.154)" fill="#273583"/>
        <path id="Path_691" data-name="Path 691" d="M429.19,830.141c4.563-4.952,8.953-9.9,13.086-14.856,62.846-76.32,64.4-156.572,66.031-241.631,1.636-82.291,3.271-167.2,60.521-256.633,31.078-48.355,75.243-93.361,134.989-137.2,22.641-16.6,47.78-33.208,75.07-49.52h-9.039q-36.932,22.5-68.1,45.442c-60.177,44.277-104.771,89.428-136.108,138.366-26,40.49-42.959,84.039-51.912,132.977-7.834,43.258-8.695,85.5-9.47,126.423-1.636,84.039-3.185,163.418-64.826,238.427-33.145,40.2-80.838,76.029-145.922,109.528-45.972,23.6-99.95,45.879-163.312,67.144v5.1c63.965-21.41,118.546-43.84,164.862-67.727C352.57,896.266,396.648,864.805,429.19,830.141Z" transform="translate(-130.114 -130.154)" fill="#273583"/>
        <path id="Path_692" data-name="Path 692" d="M436.866,840.674c6.2-6.7,12.052-13.4,17.476-20.245a275.225,275.225,0,0,0,36.76-60.3,291.7,291.7,0,0,0,19.284-61.609c8.265-41.364,8.781-82.437,9.384-125.986,1.033-82.437,2.152-167.641,59.4-255.467,30.992-47.627,75.242-91.467,135.333-134.288,24.88-17.624,52.687-35.247,83.077-52.579h-9.728c-27.463,15.876-52.773,32.043-75.5,48.21-60.521,43.112-105.2,87.389-136.538,135.6-58.111,89.137-59.144,175.215-60.263,258.38-1.119,85.5-2.152,166.331-64.223,244.4-33.4,42.092-81.527,79.815-147.214,115.354C255.561,958.5,198.139,983.263,130.3,1007.15v5.243c68.527-24.032,126.552-49.084,175.537-75.737C361.279,906.944,404.41,875.192,436.866,840.674Z" transform="translate(-130.128 -130.2)" fill="#273583"/>
        <path id="Path_693" data-name="Path 693" d="M444.011,851.451c8.006-8.593,15.41-17.186,22.211-26.071a283.773,283.773,0,0,0,36.846-62.629,302.519,302.519,0,0,0,19.2-63.357c8.179-42.384,8.523-85.933,8.867-128.171.344-41.073.6-83.6,8.006-125.986,8.265-47.481,24.794-89.428,50.449-128.171,30.906-46.753,75.329-89.719,135.678-131.375,27.118-18.789,57.852-37.286,91.6-55.492H806.449a965.535,965.535,0,0,0-83.335,50.977c-60.866,41.947-105.632,85.35-136.883,132.686-58.111,87.826-58.713,174.05-59.4,257.361-.344,43.84-.689,85.2-8.695,127.005a299.208,299.208,0,0,1-18.854,62.192,287.261,287.261,0,0,1-36.244,61.464c-33.661,43.84-82.216,83.6-148.5,121.325-51.137,29.13-112,56.657-184.232,83.311v5.389c73-26.8,134.472-54.618,186.126-84.039C369.8,917.43,411.9,885.679,444.011,851.451Z" transform="translate(-130.128 -130.2)" fill="#273583"/>
        <path id="Path_694" data-name="Path 694" d="M450.64,862.429A394.232,394.232,0,0,0,477.758,830.1a302.251,302.251,0,0,0,37.019-64.814,321.575,321.575,0,0,0,19.2-65.1c8.092-43.4,8.265-87.68,8.437-130.356.172-41.364.344-84.039,7.576-126.132,8.179-47.19,24.536-88.7,50.19-126.714,30.906-45.879,75.329-87.826,135.936-128.316a962.624,962.624,0,0,1,99.692-57.822V130.4H825.561a965.939,965.939,0,0,0-91.6,53.744c-61.124,40.782-105.977,83.165-137.227,129.627-26.085,38.743-42.787,80.835-51.051,128.9-7.4,42.675-7.49,85.641-7.662,127.3-.172,42.529-.344,86.369-8.351,129.19A315.513,315.513,0,0,1,510.9,763.1a303.459,303.459,0,0,1-36.416,63.794c-33.919,45.734-82.9,87.389-149.71,127.3-53.72,32.043-117.857,62.483-194.477,92.05v5.535c77.481-29.858,142.22-60.444,196.457-92.778C378.066,927.971,418.959,896.22,450.64,862.429Z" transform="translate(-130.128 -130.109)" fill="#273583"/>
        <path id="Path_695" data-name="Path 695" d="M336.915,967.829c49.071-30.586,88.672-62.192,119.923-95.4a398.317,398.317,0,0,0,32.37-39.18,322.976,322.976,0,0,0,37.277-67.144,339.881,339.881,0,0,0,19.2-67c8.092-44.423,8.092-89.283,8.092-132.686,0-41.51.086-84.476,7.232-126.277a327.313,327.313,0,0,1,16.96-62.629,298.719,298.719,0,0,1,33.059-62.483c30.82-45.005,75.328-85.933,136.194-125.258a936.33,936.33,0,0,1,88.586-50.249V133.7a949.617,949.617,0,0,0-90.739,51.414C683.685,224.73,638.746,266.095,607.5,311.683,581.411,349.7,564.709,391.5,556.531,439.125c-7.318,42.529-7.318,85.641-7.318,127.442,0,43.112-.086,87.535-8.006,131.521a326.769,326.769,0,0,1-18.854,65.687,315.582,315.582,0,0,1-36.588,65.979c-34.178,47.627-83.593,91.322-150.915,133.414-36.588,22.867-79.117,45.588-126.38,67.29-24.449,11.215-50.535,22.576-78.17,33.645v5.68q42.356-17.041,79.805-34.373C257.541,1013.563,300.155,990.841,336.915,967.829Z" transform="translate(-130.128 -128.602)" fill="#273583"/>
        <path id="Path_696" data-name="Path 696" d="M346.974,975.449c46.747-30.44,84.885-61.609,115.619-94.38a398.2,398.2,0,0,0,37.88-46.608c64.826-93.215,64.74-184.682,64.653-273.237-.086-43.549-.086-84.768,7.059-126.423a312.575,312.575,0,0,1,16.96-62.046A287.557,287.557,0,0,1,622.2,311.291c30.82-43.986,75.415-83.894,136.366-122.053,23.5-14.71,49.157-28.984,77.309-42.966V140.3q-43.389,21.41-79.375,43.986c-61.726,38.6-106.837,78.942-138,123.51A288.665,288.665,0,0,0,584.84,370.57a324.412,324.412,0,0,0-17.3,63.211c-7.232,42.238-7.146,85.641-7.146,127.588C560.563,727.992,560.735,900,130.2,1080.9v5.826c31.509-13.254,61.21-26.508,88.759-39.908C266.824,1023.8,309.869,999.626,346.974,975.449Z" transform="translate(-130.114 -125.589)" fill="#273583"/>
        <path id="Path_697" data-name="Path 697" d="M356.8,983.068c44.25-30.149,81.01-60.735,110.884-92.632a449.791,449.791,0,0,0,43.734-54.327c65.256-96.711,65.17-189.634,65-279.645-.086-43.84-.172-85.2,6.973-126.569,8.006-46.753,23.933-85.5,49.932-122.053,30.82-43.112,75.5-82,136.625-118.995,20.231-12.234,42.1-24.178,65.859-35.83V146.9q-36.674,18.133-67.925,36.849c-61.726,37.286-106.924,76.611-138.088,120.306a289.094,289.094,0,0,0-33.747,61.755,314.512,314.512,0,0,0-17.3,62.775c-7.232,41.947-7.145,83.6-7.059,127.734.172,88.991.258,180.9-63.965,276-34.78,51.56-84.971,99.187-153.24,145.648-37.191,25.343-80.408,50.54-128.446,75.009-29.615,15.147-61.64,30.149-95.732,45.151v5.972c34.78-15.147,67.408-30.586,97.54-45.879C276.05,1033.9,319.439,1008.557,356.8,983.068Z" transform="translate(-130.128 -122.577)" fill="#273583"/>
        <path id="Path_698" data-name="Path 698" d="M366.458,990.824c41.754-29.567,76.792-59.57,105.891-90.593a465.066,465.066,0,0,0,49.846-62.774c29.443-44.86,48.21-92.778,57.508-146.668,8.178-47.627,8.092-94.234,8.092-139.386-.086-86.661-.172-168.515,57.078-247.165,30.734-42.238,75.5-80.107,136.8-115.791,16.874-9.9,34.952-19.517,54.237-28.984V153.2c-20.059,9.758-38.826,19.808-56.3,30-61.9,36.121-107.1,74.426-138.346,117.247a276.443,276.443,0,0,0-33.833,60.881,305.854,305.854,0,0,0-17.3,62.192c-7.232,41.8-7.232,83.6-7.145,127.879.086,90.448.258,183.954-64.481,282.413-35.125,53.453-85.573,103.119-154.359,151.911-37.535,26.653-81.01,53.162-129.393,78.941-32.111,17.187-67.064,34.228-104.341,51.268v6.263c38.052-17.332,73.607-34.81,106.321-52.142C285.1,1044.278,328.751,1017.624,366.458,990.824Z" transform="translate(-130.142 -119.701)" fill="#273583"/>
        <path id="Path_699" data-name="Path 699" d="M375.828,998.581c39.171-28.838,72.488-57.968,100.553-87.826a501.718,501.718,0,0,0,56.3-71.659C562.3,792.78,581.324,743.4,590.708,688.2c8.265-48.647,8.265-95.837,8.265-141.57,0-86.807.086-168.661,57.422-245.709,30.734-41.364,75.587-78.213,136.883-112.732q20.145-11.361,42.442-22.284V159.5c-15.668,7.574-30.562,15.293-44.594,23.3-61.985,34.81-107.268,72.242-138.518,114.043-58.541,78.941-58.541,161.961-58.627,249.933,0,45.3,0,92.2-8.179,140.405-9.212,54.327-27.893,102.828-57.078,148.416-35.469,55.346-86.262,107.052-155.478,158.029-37.793,27.819-81.527,55.638-130.168,82.874-34.522,19.226-72.315,38.6-112.778,57.677v6.408c41.237-19.517,79.719-39.18,114.93-58.7C293.957,1054.51,337.949,1026.546,375.828,998.581Z" transform="translate(-130.128 -116.825)" fill="#273583"/>
        <path id="Path_700" data-name="Path 700" d="M385.04,1006.483q54.624-41.728,94.785-84.622c24.794-26.362,45.714-53.307,63.018-81.126,29.873-47.919,49.071-98.6,58.627-154.97,8.437-49.812,8.609-97.585,8.7-143.755.086-44.277.258-86.224,7.576-127.006,8.179-45.588,24.191-82.874,50.449-117.247,30.82-40.345,75.587-76.32,137.055-109.673,9.814-5.243,19.973-10.487,30.562-15.73V165.8c-11.364,5.535-22.211,11.069-32.628,16.75-62.071,33.645-107.44,70.057-138.691,110.984-58.8,77.194-59.058,160.359-59.316,248.331-.172,45.879-.258,93.361-8.609,142.59a414.6,414.6,0,0,1-57.68,152.639c-16.96,27.236-37.966,54.181-62.329,80.252-.172.146-.258.291-.43.437-26.516,28.11-58.025,56.366-93.752,83.6-37.966,29.13-82.044,58.259-130.943,86.661-36.932,21.556-77.567,43.112-121.128,64.522v6.554c44.422-21.7,85.745-43.695,123.367-65.542C302.652,1065.034,346.9,1035.758,385.04,1006.483Z" transform="translate(-130.128 -113.949)" fill="#273583"/>
        <path id="Path_701" data-name="Path 701" d="M393.993,1014.431c33.4-26.508,63.19-53.6,88.759-80.835,2.066-2.185,4.132-4.515,6.2-6.7,24.966-27.382,46.488-55.783,63.879-84.331,30.131-49.375,49.5-101.371,59.316-159.194,8.609-50.831,8.953-99.187,9.3-145.94.258-44.568.516-86.661,8.006-127.151,8.351-45.3,24.449-82.146,50.707-115.791,30.82-39.616,75.673-74.426,137.141-106.615,6.026-3.2,12.139-6.263,18.509-9.322V172c-72.918,35.393-125.088,74.426-159.438,118.412-26.946,34.519-43.475,72.242-52,118.7-7.576,41.073-7.834,83.457-8.092,128.316-.258,46.462-.6,94.526-9.126,144.775-9.642,56.8-28.754,108.071-58.455,156.718-17.218,28.256-38.482,56.22-63.19,83.457-26.688,29.275-58.369,58.551-94.268,86.952-38.224,30.295-82.474,60.735-131.545,90.448-39.257,23.886-82.646,47.773-129.393,71.513v6.7c47.608-24.032,91.772-48.5,131.717-72.679C311.175,1075.458,355.683,1044.871,393.993,1014.431Z" transform="translate(-130.128 -111.119)" fill="#273583"/>
        <path id="Path_702" data-name="Path 702" d="M402.774,1022.616A870.488,870.488,0,0,0,484.99,946.3q6.715-7.21,13.172-14.419a590.869,590.869,0,0,0,64.4-87.1,467.17,467.17,0,0,0,60.091-163.126c8.867-51.851,9.47-100.789,9.986-148.125.516-44.714.947-86.952,8.523-127.3,8.437-45.005,24.708-81.272,51.051-114.48,31.509-39.616,78.6-74.863,143.512-106.906V178c-66.633,32.625-115.016,68.746-147.3,109.236-27.032,33.936-43.734,71.222-52.429,117.393-7.748,40.927-8.179,83.457-8.7,128.608-.516,47.044-1.033,95.691-9.814,146.959-9.986,58.114-29.357,110.693-59.23,160.8-17.39,29.13-38.826,58.114-63.706,86.224-26.86,30.295-58.713,60.59-94.785,90.156-38.4,31.46-82.818,63.211-132.062,94.234-41.581,26.217-87.639,52.579-137.4,78.8v6.846c50.707-26.508,97.626-53.453,139.9-80.107C319.525,1086.118,364.206,1054.367,402.774,1022.616Z" transform="translate(-130.128 -108.38)" fill="#273583"/>
        <path id="Path_703" data-name="Path 703" d="M411.211,1030.9a926.678,926.678,0,0,0,75.329-71.222c7.145-7.574,14.033-15.293,20.575-22.867a608.079,608.079,0,0,0,64.826-89.865c68.527-117.1,70.249-223.425,71.885-317.368.775-45.005,1.464-87.389,9.212-127.588,8.7-44.714,25.052-80.544,51.482-113.023,29.529-36.267,72.66-68.6,131.2-97.876V184.1c-60.091,29.858-104.341,62.629-135.075,100.352-27.2,33.353-43.992,70.2-52.859,116.082-7.92,40.782-8.609,83.6-9.384,128.9-.775,47.627-1.636,96.711-10.675,149C617.4,737.71,597.767,791.6,567.55,843.159,493,970.6,349.829,1090.616,130.3,1209.611v7.137c53.72-29.13,103.308-58.551,147.9-87.68C327.7,1096.879,372.471,1063.817,411.211,1030.9Z" transform="translate(-130.128 -105.595)" fill="#273583"/>
        <path id="Path_704" data-name="Path 704" d="M580.966,849.651c69.13-120.306,71.627-228.231,73.865-323.34,2.152-91.176,3.96-169.972,62.071-239.737,27.721-33.353,66.72-62.629,118.8-89.137V190.3c-53.806,27.236-94.1,57.24-122.678,91.613-27.29,32.771-44.25,69.329-53.462,114.917-8.179,40.636-9.126,83.6-10.245,129.19C648.2,574.084,647.083,623.9,637.613,677.2c-10.761,60.59-30.734,115.791-61.21,168.661q-36.029,62.7-92.977,123.364c-82.9,88.409-199.814,174.341-353.226,260.274v7.282c155.048-86.515,273.077-173.322,356.928-262.6C525.524,933.253,556.775,891.889,580.966,849.651Z" transform="translate(-130.114 -102.765)" fill="#273583"/>
        <path id="Path_705" data-name="Path 705" d="M589.761,852.6c69.819-123.51,73.176-232.892,76.189-329.311,2.841-91.467,5.251-170.409,63.534-238.863,25.483-30,60.435-56.512,106.235-80.544V196.6c-47.521,24.615-83.765,52-110.195,83.02-27.463,32.188-44.594,68.455-54.064,113.9-8.437,40.49-9.728,83.748-11.192,129.627-2.927,95.545-6.285,203.908-75.156,325.816C507.029,986.889,358.18,1118.118,130.3,1249.493v7.428c153.842-88.409,271.958-176.963,357.014-267.556C529.5,944.359,563.59,898.917,589.761,852.6Z" transform="translate(-130.128 -99.889)" fill="#273583"/>
        <path id="Path_706" data-name="Path 706" d="M598.2,855.942c70.508-126.569,74.9-237.407,78.686-335.137,3.616-91.758,6.715-170.991,65.256-238.427,23.158-26.654,53.978-50.394,93.58-71.95V203c-41.323,22.139-73.435,46.753-97.54,74.426C678,346.755,674.818,427.3,671.2,520.514c-3.788,96.856-8.178,206.675-77.739,331.642-79.891,143.318-231.409,280.082-463.163,417.72v7.574c152.379-90.3,270.408-180.313,356.5-272.071C533.028,956.148,569.961,906.482,598.2,855.942Z" transform="translate(-130.128 -96.968)" fill="#273583"/>
        <path id="Path_707" data-name="Path 707" d="M607,859.529a610.5,610.5,0,0,0,65.687-182.352c10.847-56.657,13.43-108.363,15.84-158.465,2.238-46.025,4.391-89.574,13.258-129.336,9.9-43.84,26.946-78.5,53.892-108.8,20.661-23.3,47.349-44.277,80.752-63.357V209.5c-35.211,19.808-63.19,41.51-84.8,65.979-60.435,68.309-64.4,149.144-68.958,242.8-4.821,98.167-10.245,209.3-80.58,337.322a745.962,745.962,0,0,1-66.031,99.187c-27.635,35.247-60.091,70.64-96.593,105.45-39,37.14-83.851,74.863-133.267,111.858-50.965,38.305-108.473,77.048-170.8,115.354h12.741c142.392-88.117,254.481-175.944,338.161-265.08C536.664,968.766,576.7,914.584,607,859.529Z" transform="translate(-130.837 -94.001)" fill="#273583"/>
        <path id="Path_708" data-name="Path 708" d="M456.1,1074.815c11.88-11.652,23.33-23.3,34.35-35.1,23.072-24.615,44.164-49.229,63.018-73.844a794.807,794.807,0,0,0,67.15-102.391,645.961,645.961,0,0,0,67.15-185.847c11.45-57.677,14.635-112.3,17.476-160.359,2.755-46.462,5.338-90.3,14.635-129.918,10.245-43.84,27.635-78.213,54.667-108.071,17.993-19.954,40.376-38.014,67.839-54.473V216.8c-29.184,17.332-52.945,36.266-71.885,57.24-60.779,67.29-65.6,148.707-71.2,242.8-3.013,50.249-6.026,102.245-17.39,159.194a636.667,636.667,0,0,1-66.375,183.517,771.294,771.294,0,0,1-66.547,101.517c-27.721,36.121-60.349,72.533-96.765,108.217-39,38.306-83.852,76.9-133.095,115.062-42.787,33.062-90.05,66.561-140.929,99.915h12.311c47.435-31.314,91.6-62.775,131.8-93.943C371.9,1152.155,416.927,1113.266,456.1,1074.815Z" transform="translate(-136.791 -90.668)" fill="#273583"/>
        <path id="Path_709" data-name="Path 709" d="M468.377,1084.063c8.523-8.593,16.874-17.186,25.052-25.925A1066.123,1066.123,0,0,0,566,972.5a819.324,819.324,0,0,0,67.581-104.721,684.2,684.2,0,0,0,68.7-189.2c12.053-58.551,15.927-113.606,19.37-162.252,3.271-46.9,6.457-91.03,16.1-130.792,10.675-43.84,28.323-77.922,55.442-107.634,15.066-16.458,33.231-31.46,54.839-45.442V224.3c-23.244,14.711-42.787,30.878-58.885,48.355-28.065,30.586-46.23,65.833-57.25,110.984-9.9,40.49-13,85.059-16.357,132.249-3.616,50.686-7.318,103.265-19.2,161.233a674.051,674.051,0,0,1-67.925,187.013A815.5,815.5,0,0,1,561.44,967.981c-27.893,36.995-60.521,74.281-96.937,110.838-39,39.034-83.765,78.651-132.837,117.83-34.952,27.819-73,56.075-113.466,84.185h12.053c37.191-26.071,72.315-52.288,104.771-78.213C384.353,1163.442,429.206,1123.534,468.377,1084.063Z" transform="translate(-142.355 -87.245)" fill="#273583"/>
        <path id="Path_710" data-name="Path 710" d="M479.967,1093.52c5.165-5.389,10.331-10.778,15.324-16.021a1113.215,1113.215,0,0,0,82.3-98.021A863.751,863.751,0,0,0,645.6,872.571a725,725,0,0,0,70.335-192.4c12.655-59.425,17.3-115.062,21.35-164.292,3.874-47.336,7.576-91.9,17.734-131.812,11.192-43.84,29.1-77.922,56.389-107.2.172-.146.344-.437.516-.583a274.406,274.406,0,0,1,41.065-35.393V232.3a281.611,281.611,0,0,0-45.2,38.451c-.172.146-.344.437-.6.582-28.237,30.295-46.661,65.4-58.2,110.547-10.331,40.49-14.033,85.5-17.993,133.268-4.046,48.938-8.609,104.284-21.178,163.126a714.658,714.658,0,0,1-69.561,190.217,859.523,859.523,0,0,1-67.494,105.886,1114.909,1114.909,0,0,1-97.109,113.315c-39,40.2-83.593,80.835-132.492,121.034-27.549,22.575-56.992,45.443-88.07,68.309h11.966c27.979-20.828,54.667-41.656,79.805-62.192A1557.106,1557.106,0,0,0,479.967,1093.52Z" transform="translate(-147.488 -83.593)" fill="#273583"/>
        <path id="Path_711" data-name="Path 711" d="M752.688,516.139c4.563-47.773,8.867-92.924,19.456-132.977,11.622-43.986,29.873-78.068,57.422-107.2a255.8,255.8,0,0,1,28.41-25.78V241.3a268.046,268.046,0,0,0-32.542,28.984c-.172.146-.345.437-.516.583-28.065,29.858-46.747,64.814-58.713,109.965-10.761,40.636-15.152,86.224-19.715,134.288-4.735,49.375-10.073,105.3-23.33,165.02A757.915,757.915,0,0,1,651.877,873.56a905.239,905.239,0,0,1-67.925,107.926,1185.082,1185.082,0,0,1-97.109,115.791c-38.913,41.073-83.335,82.583-132.062,123.656q-30.734,26-64.481,52.142h11.45c78-61.318,141.962-119.869,194.649-175.943C719.888,859,738.311,666.739,752.688,516.139Z" transform="translate(-152.384 -79.484)" fill="#273583"/>
        <path id="Path_712" data-name="Path 712" d="M496.413,1117.526l4.907-5.243a1222.852,1222.852,0,0,0,97.626-118.558A956.149,956.149,0,0,0,667.9,883.032a813.117,813.117,0,0,0,73.951-198.373c14.119-61.027,20.317-117.83,25.827-167.933,5.251-48.355,10.245-93.943,21.436-134.142,12.225-44.131,30.82-78.213,58.455-107.2,4.735-4.952,9.728-9.758,15.066-14.419V251.5a242.4,242.4,0,0,0-19.284,18.206c-28.582,29.858-47.78,65.1-60.349,110.547-11.278,40.927-16.357,86.952-21.695,135.6C741.08,700.826,714.048,947.991,323.2,1268.709h11.192c11.966-9.9,23.589-19.808,34.952-29.566C415.919,1198.652,458.619,1157.725,496.413,1117.526Z" transform="translate(-156.961 -74.828)" fill="#273583"/>
        <path id="Path_713" data-name="Path 713" d="M495.373,1138.53c5.251-5.68,10.5-11.215,15.582-16.9a1283.629,1283.629,0,0,0,97.54-120.6A1004.029,1004.029,0,0,0,677.884,888.6a860.586,860.586,0,0,0,75.845-201.141c14.893-61.755,22.039-118.995,28.324-169.68,6.026-48.938,11.794-95.109,23.5-135.744,12.827-44.423,31.767-78.65,59.66-107.634.516-.583,1.119-1.165,1.636-1.748V262.6c-1.98,1.893-3.96,3.932-5.94,5.972-28.754,29.858-48.382,65.1-61.554,110.838-11.88,41.219-17.648,87.826-23.761,137.055-6.2,50.394-13.344,107.343-28.065,168.661a850.848,850.848,0,0,1-75.07,199.1,1000.357,1000.357,0,0,1-68.786,111.567,1250.976,1250.976,0,0,1-97.023,119.869A1700.687,1700.687,0,0,1,375.967,1243.98c-7.146,6.408-14.463,12.672-21.867,19.08h11.106c4.907-4.369,9.814-8.593,14.635-12.817C421.68,1213.394,460.507,1175.67,495.373,1138.53Z" transform="translate(-161.259 -69.761)" fill="#273583"/>
        <path id="Path_714" data-name="Path 714" d="M520.211,1130.657a1321.344,1321.344,0,0,0,97.368-122.49A1081.545,1081.545,0,0,0,687.4,894.124a917.675,917.675,0,0,0,77.911-203.617c15.754-62.483,23.847-120.306,30.906-171.428,13.172-94.963,23.847-171.283,74.812-232.309V275.7c-24.966,28.11-42.7,61.318-55.356,103.41-12.483,41.51-19.026,88.7-26,138.657-7.059,50.831-15.066,108.508-30.734,170.409A900.6,900.6,0,0,1,681.8,889.9a1037.2,1037.2,0,0,1-69.3,113.169,1325.977,1325.977,0,0,1-96.851,121.762c-38.568,43.258-82.216,87.1-129.737,130.355-.775.728-1.636,1.456-2.41,2.185h10.847c35.383-32.334,68.527-65.1,99-97.584C502.562,1150.028,511.516,1140.27,520.211,1130.657Z" transform="translate(-165.348 -63.781)" fill="#273583"/>
        <path id="Path_715" data-name="Path 715" d="M528.74,1139.2A1382.667,1382.667,0,0,0,625.85,1015.11a1102.386,1102.386,0,0,0,70.163-115.5A969.032,969.032,0,0,0,775.99,693.664c16.615-63.066,25.741-121.471,33.661-173.03,13.516-87.244,24.708-159.048,65.084-217.453V290.8c-18.423,24.615-32.456,53.162-43.217,87.68-13.172,42.092-20.575,89.865-28.41,140.551-7.92,51.268-16.96,109.528-33.489,172.011A959.006,959.006,0,0,1,690.331,895.1a1100.584,1100.584,0,0,1-69.647,114.625,1404.185,1404.185,0,0,1-96.593,123.364c-33.919,38.742-71.8,78.068-112.692,117.1h10.761q35.77-34.519,68.269-69.037C503.688,1167.313,516.516,1153.33,528.74,1139.2Z" transform="translate(-169.229 -56.888)" fill="#273583"/>
        <path id="Path_716" data-name="Path 716" d="M536.831,1146.961a1457.387,1457.387,0,0,0,96.851-125.4,1169.821,1169.821,0,0,0,70.594-116.81,1029.835,1029.835,0,0,0,82.13-207.986c17.563-63.648,27.721-122.636,36.588-174.633,13.43-78.213,24.794-144.192,55.614-199.1V308.9c-12.4,20.245-22.642,42.966-31.165,69.037-13.86,42.53-21.867,88.991-31.078,142.59-8.867,51.705-18.94,110.4-36.416,173.759a1022.68,1022.68,0,0,1-81.441,206.238,1152.521,1152.521,0,0,1-70.077,115.936,1434.718,1434.718,0,0,1-96.248,124.675c-28.754,33.5-60.263,67.29-94.182,101.08h10.675c13-13.108,25.569-26.071,37.88-39.179C504.031,1184.393,520.9,1165.6,536.831,1146.961Z" transform="translate(-172.93 -48.626)" fill="#273583"/>
        <path id="Path_717" data-name="Path 717" d="M544.4,1153.9a1516.431,1516.431,0,0,0,96.421-126.569A1256.882,1256.882,0,0,0,711.755,909.5a1098.349,1098.349,0,0,0,84.368-209.88c18.509-64.231,29.787-123.656,39.687-176.089,12.741-67.581,23.847-126.132,46.316-176.38V330.4a360.282,360.282,0,0,0-19.2,46.608c-14.635,43.112-23.589,90.3-33.919,144.92-9.9,52.288-21.092,111.421-39.515,175.215a1085.74,1085.74,0,0,1-83.679,208.132,1240.394,1240.394,0,0,1-70.421,117.1,1525.407,1525.407,0,0,1-95.9,125.986c-23.675,27.964-49.071,56.22-76.189,84.476h10.5c2.755-2.913,5.6-5.826,8.265-8.739C504.02,1200.359,524.768,1177.055,544.4,1153.9Z" transform="translate(-176.449 -38.812)" fill="#273583"/>
        <path id="Path_718" data-name="Path 718" d="M551.393,1159.725a1577.106,1577.106,0,0,0,95.9-127.588,1310.51,1310.51,0,0,0,71.2-118.7A1164,1164,0,0,0,805.1,701.952c19.542-64.814,31.939-124.675,42.873-177.545,11.45-55.346,21.695-104.721,37.449-148.561V355.6c-2.583,6.263-4.993,12.671-7.318,19.371-15.5,43.84-25.4,91.759-36.932,147.4-10.934,52.725-23.244,112.441-42.7,176.817a1169.192,1169.192,0,0,1-85.918,209.88,1314.385,1314.385,0,0,1-70.766,117.975A1559.694,1559.694,0,0,1,546.4,1153.9q-27.893,33.426-58.8,67.144h10.417C516.7,1200.507,534.519,1179.971,551.393,1159.725Z" transform="translate(-179.829 -27.308)" fill="#273583"/>
        <path id="Path_719" data-name="Path 719" d="M557.919,1164.311c67.667-82.583,122.248-163.563,166.756-247.6A1247.446,1247.446,0,0,0,813.605,703.77c20.576-65.25,34.178-125.695,46.23-179,9.47-41.947,18.165-80.544,28.84-115.936V384.8c-14.033,41.364-24.363,87.1-35.727,137.638C840.982,575.6,827.38,635.752,806.977,700.566A1247.442,1247.442,0,0,1,718.735,911.9c-44.25,83.456-98.573,164-165.895,246.291q-20.145,24.469-41.84,49.229h10.331C533.986,1193.149,546.125,1178.73,557.919,1164.311Z" transform="translate(-183.084 -13.979)" fill="#273583"/>
        <path id="Path_720" data-name="Path 720" d="M563.976,1168.027c66.892-82.874,121.3-164.146,166.325-248.476a1340.677,1340.677,0,0,0,91.255-213.958c21.609-65.687,36.5-126.569,49.674-180.167,6.973-28.547,13.6-55.638,20.662-81.126V417.5c-9.814,32.625-18.337,67.727-27.635,105.45-13.086,53.6-27.979,114.188-49.416,179.439a1322.6,1322.6,0,0,1-90.652,212.5c-44.767,83.893-98.831,164.728-165.378,247.166-8.265,10.2-16.7,20.391-25.311,30.732h10.331C550.632,1184.485,557.347,1176.183,563.976,1168.027Z" transform="translate(-186.214 0.948)" fill="#273583"/>
        <path id="Path_721" data-name="Path 721" d="M735.172,923a1435.394,1435.394,0,0,0,93.58-214.686c22.642-65.979,38.913-127.3,53.2-181.333,4.391-16.6,8.609-32.625,12.827-48.064V451.1c-6.715,23.3-13.172,47.773-19.887,73.261-14.291,53.89-30.39,115.062-52.945,180.6a1433.128,1433.128,0,0,1-92.977,213.375c-45.111,84.039-99.089,165.165-164.862,247.6-3.013,3.787-6.112,7.574-9.212,11.36h10.245c1.464-1.748,2.841-3.5,4.3-5.389C635.652,1089.04,689.8,1007.623,735.172,923Z" transform="translate(-189.191 16.286)" fill="#273583"/>
        <path id="Path_722" data-name="Path 722" d="M835.389,713.051c23.761-66.125,41.323-127.879,56.819-182.352,1.894-6.554,3.7-12.963,5.51-19.371V483.8c-4.132,14.273-8.351,28.984-12.569,43.986C838.4,692.223,778.828,901.666,576,1162.376h10.159c60-77.776,110.367-154.533,153.412-234.057A1541.158,1541.158,0,0,0,835.389,713.051Z" transform="translate(-192.126 31.213)" fill="#273583"/>
        <path id="Path_723" data-name="Path 723" d="M900.5,514.8c-1.894,6.263-3.874,12.672-5.854,19.08-48.9,160.5-110.884,363.83-298.645,614.346h10.159C789.7,901.643,851.945,700.648,900.5,541.308Z" transform="translate(-194.908 45.364)" fill="#273583"/>
        <path id="Path_724" data-name="Path 724" d="M846.593,729.793c22.383-57.24,40.548-111.567,56.647-160.65V543.8c-17.821,54.618-37.966,116.373-63.62,182.061a1789.205,1789.205,0,0,1-99.864,213.957A1893.436,1893.436,0,0,1,615.7,1134.987h10.158A1888.279,1888.279,0,0,0,746.212,944.916,1784.709,1784.709,0,0,0,846.593,729.793Z" transform="translate(-197.648 58.602)" fill="#273583"/>
        <path id="Path_725" data-name="Path 725" d="M905.883,595.578V571.4C867.4,681.8,822.634,806.477,742.054,951.251A1977.4,1977.4,0,0,1,634.7,1122.534h10.159q57.078-82.365,103.652-166.04C824.614,819.731,868.864,701.173,905.883,595.578Z" transform="translate(-200.291 71.201)" fill="#273583"/>
        <path id="Path_726" data-name="Path 726" d="M908.47,620.9V597.6c-39.946,107.634-86.779,228.377-164.776,366.743q-41.581,73.844-90.394,146.085h10.158q46.876-69.693,86.779-140.7C824.016,838.939,869.988,723.877,908.47,620.9Z" transform="translate(-202.878 83.161)" fill="#273583"/>
        <path id="Path_727" data-name="Path 727" d="M911.016,645.53V623.1c-41.5,105.3-90.308,222.988-166.24,356.4q-34.35,60.3-73.176,119.432h10.158q36.8-56.585,69.647-114.043C823.376,858.614,870.984,746.319,911.016,645.53Z" transform="translate(-205.424 94.802)" fill="#273583"/>
        <path id="Path_728" data-name="Path 728" d="M913.519,669.7V648C870.3,751.556,819.768,866.91,745.214,996.1q-26.6,46.1-55.614,91.467h10.245q27.118-42.6,52.084-85.933C822.609,879,871.766,769.034,913.519,669.7Z" transform="translate(-207.928 106.168)" fill="#273583"/>
        <path id="Path_729" data-name="Path 729" d="M916,693.719V672.6c-45.025,102.245-97.367,215.851-171.06,341.546q-18.337,31.242-37.535,62.046h10.245c11.622-18.643,22.9-37.432,34.005-56.366C821.727,900.394,872.434,791.886,916,693.719Z" transform="translate(-210.404 117.398)" fill="#273583"/>
        <path id="Path_730" data-name="Path 730" d="M918.485,697.1C867.348,807.21,808.118,929.555,725.3,1065.008h10.331C812.939,938,869.586,822.358,918.485,717.636Z" transform="translate(-212.893 128.582)" fill="#273583"/>
        <path id="Path_731" data-name="Path 731" d="M920.989,721.8C871.918,822.3,815.874,933.427,743.3,1053.733h10.417c67.581-112.44,120.7-216.871,167.272-311.979Z" transform="translate(-215.397 139.857)" fill="#273583"/>
        <path id="Path_732" data-name="Path 732" d="M923.549,746.7c-46.4,90.593-98.487,189.926-161.849,295.667h10.589c58.627-98.313,107.526-190.945,151.26-276.15Z" transform="translate(-217.957 151.223)" fill="#273583"/>
        <path id="Path_733" data-name="Path 733" d="M926.219,772c-43.131,80.252-90.566,167.2-145.319,258.817h10.675c50.277-84.476,94.44-164.874,134.645-239.592V772Z" transform="translate(-220.628 162.772)" fill="#273583"/>
        <path id="Path_734" data-name="Path 734" d="M929.029,797.8c-39.859,70.785-81.7,144.338-127.929,221.24h10.847c42.012-69.911,80.236-136.91,117.168-202.451V797.8Z" transform="translate(-223.437 174.55)" fill="#273583"/>
        <path id="Path_735" data-name="Path 735" d="M932.034,824.2C897.34,883.042,861.268,943.923,822.7,1006.989h11.02c34.522-56.366,66.978-111.13,98.314-164.292Z" transform="translate(-226.442 186.601)" fill="#273583"/>
        <path id="Path_736" data-name="Path 736" d="M935.317,851.4C906.3,898.445,876.862,946.071,846.3,994.573h11.278c26.6-42.384,52.343-84.039,77.739-125.112Z" transform="translate(-229.725 199.017)" fill="#273583"/>
        <path id="Path_737" data-name="Path 737" d="M938.975,879.3Q906.046,930.2,872.6,981.836h11.536q27.635-42.6,54.839-84.622Z" transform="translate(-233.383 211.753)" fill="#273583"/>
        <path id="Path_738" data-name="Path 738" d="M943.079,908.2c-1.55,2.185-3.013,4.515-4.563,6.7-12.139,17.915-24.191,35.829-36.416,53.744h11.966c9.728-14.273,19.37-28.693,29.1-42.966V908.2Z" transform="translate(-237.487 224.945)" fill="#273583"/>
        <path id="Path_739" data-name="Path 739" d="M947.752,938.1c-4.046,5.68-8.006,11.361-12.052,17.041h12.052Z" transform="translate(-242.161 238.594)" fill="#273583"/>
      </g>
    </g>
    <rect id="Rectangle_326" data-name="Rectangle 326" width="349" height="523" transform="translate(-13528 -22066)" fill="url(#linear-gradient)"/>
  </g>
</svg>
